<?xml version="1.0" encoding="UTF-8" standalone="no"?>
<svg width="72px" height="23px" viewBox="0 0 72 23" version="1.1" xmlns="http://www.w3.org/2000/svg" xmlns:xlink="http://www.w3.org/1999/xlink" xmlns:sketch="http://www.bohemiancoding.com/sketch/ns">
    <!-- Generator: Sketch 3.5.2 (25235) - http://www.bohemiancoding.com/sketch -->
    <title>Page 1</title>
    <desc>Created with Sketch.</desc>
    <defs></defs>
    <g id="Page-1" stroke="none" stroke-width="1" fill="none" fill-rule="evenodd" sketch:type="MSPage">
        <path d="M13.747,6.353 L16.467,6.353 C16.579,6.353 16.67,6.26 16.67,6.147 L16.67,0.211 C16.67,0.093 16.579,0 16.467,0 L0.206,0 C0.091,0 0,0.093 0,0.211 L0,6.147 C0,6.26 0.091,6.353 0.206,6.353 L2.908,6.353 C3.014,6.354 3.095,6.437 3.103,6.535 L3.103,15.553 C3.088,15.636 3.028,15.692 2.951,15.71 L0.206,15.71 C0.091,15.71 0,15.805 0,15.916 L0,22.173 C0,22.287 0.091,22.379 0.206,22.379 L16.467,22.379 C16.579,22.379 16.67,22.287 16.67,22.173 L16.67,15.916 C16.67,15.805 16.579,15.71 16.467,15.71 L13.706,15.71 C13.639,15.699 13.581,15.65 13.556,15.587 L13.556,6.551 C13.558,6.444 13.642,6.359 13.747,6.353 L13.747,6.353 Z M44.385,0.211 C44.385,0.093 44.292,0 44.178,0 L19.277,0 C19.163,0 19.073,0.093 19.073,0.211 L19.073,6.147 C19.073,6.26 19.163,6.353 19.277,6.353 L21.977,6.353 C22.079,6.354 22.163,6.437 22.169,6.535 L22.169,15.553 C22.157,15.636 22.097,15.692 22.016,15.71 L19.277,15.71 C19.163,15.71 19.073,15.805 19.073,15.916 L19.073,22.173 C19.073,22.287 19.163,22.379 19.277,22.379 L35.533,22.379 C35.646,22.379 35.738,22.287 35.738,22.173 L35.738,15.916 C35.738,15.805 35.646,15.71 35.533,15.71 L31.624,15.71 C31.556,15.699 31.495,15.65 31.471,15.587 L31.471,13.277 C31.471,13.17 31.56,13.085 31.667,13.074 L35.444,13.067 C35.552,13.067 35.646,12.975 35.646,12.864 L35.646,9.272 C35.646,9.159 35.552,9.066 35.444,9.066 L31.675,9.061 C31.568,9.061 31.484,8.981 31.471,8.876 L31.471,6.551 C31.475,6.444 31.558,6.359 31.664,6.353 L37.389,6.353 C37.488,6.354 37.572,6.433 37.58,6.535 L37.58,8.005 C37.58,8.124 37.675,8.216 37.787,8.216 L44.183,8.216 C44.292,8.216 44.389,8.124 44.389,8.005 L44.385,0.211 Z M72,8.005 C72,8.124 71.909,8.216 71.794,8.216 L65.402,8.216 C65.288,8.216 65.196,8.124 65.196,8.005 L65.196,6.535 C65.183,6.433 65.101,6.354 65,6.353 L59.279,6.353 C59.171,6.359 59.09,6.444 59.086,6.551 L59.086,8.876 C59.098,8.981 59.181,9.061 59.287,9.061 L63.056,9.066 C63.165,9.066 63.259,9.159 63.259,9.272 L63.259,12.864 C63.259,12.975 63.165,13.067 63.056,13.067 L59.284,13.074 C59.174,13.085 59.086,13.17 59.086,13.277 L59.086,15.587 C59.113,15.65 59.168,15.699 59.241,15.71 L63.149,15.71 C63.259,15.71 63.353,15.805 63.353,15.916 L63.353,22.173 C63.353,22.287 63.259,22.379 63.149,22.379 L46.892,22.379 C46.778,22.379 46.686,22.287 46.686,22.173 L46.686,15.916 C46.686,15.805 46.778,15.71 46.892,15.71 L49.629,15.71 C49.706,15.692 49.773,15.636 49.785,15.553 L49.785,6.535 C49.777,6.437 49.692,6.354 49.59,6.353 L46.892,6.353 C46.778,6.353 46.686,6.26 46.686,6.147 L46.686,0.211 C46.686,0.093 46.778,0 46.892,0 L71.791,0 C71.906,0 72,0.093 72,0.211 L72,8.005 Z" fill="#0138A0" sketch:type="MSShapeGroup"></path>
    </g>
</svg>